{"title":"Offspring - S06E10 - To the Best Of My Ability","uid":15880752,"size":369545857,"categoryP":"video","categoryS":"tv_shows","magnet":"?xt=urn:btih:37d0545a1422f9f3c86ab60334da3d05f9df76af&amp;dn=Offspring+-+S06E10+-+To+the+Best+Of+My+Ability&amp;tr=udp%3A%2F%2Ftracker.leechers-paradise.org%3A6969&amp;tr=udp%3A%2F%2Fzer0day.ch%3A1337&amp;tr=udp%3A%2F%2Fopen.demonii.com%3A1337&amp;tr=udp%3A%2F%2Ftracker.coppersurfer.tk%3A6969&amp;tr=udp%3A%2F%2Fexodus.desync.com%3A6969","seeders":6,"leechers":1,"uploader":"Bullrout","files":1,"time":1474596600,"description":"Offspring - S06E10 - To the Best Of My Ability\r\n\r\nBillie plays cupid for two hopeless lovers and three generations of Proudman women help Nina do what she does best in a life-affirming moment.\r\n\r\n\r\nComplete name                            : Offspring - S06E10 - To The Best Of My Ability.mp4\r\nFormat                                   : MPEG-4\r\nFormat profile                           : Base Media / Version 2\r\nCodec ID                                 : mp42 (mp42/isom/avc1)\r\nFile size                                : 352 MiB\r\nDuration                                 : 44 min 6 s\r\nOverall bit rate mode                    : Variable\r\nOverall bit rate                         : 1 117 kb/s\r\n\r\nVideo\r\nID                                       : 2\r\nFormat                                   : AVC\r\nFormat/Info                              : Advanced Video Codec\r\nFormat profile                           :   \r\nFormat settings, CABAC                   : Yes\r\nFormat settings, ReFrames                : 3 frames\r\nCodec ID                                 : avc1\r\nCodec ID/Info                            : Advanced Video Coding\r\nDuration                                 : 44 min 6 s\r\nBit rate mode                            : Variable\r\nBit rate                                 : 986 kb/s\r\nMaximum bit rate                         : 1 000 kb/s\r\nWidth                                    : 720 pixels\r\nHeight                                   : 404 pixels\r\nDisplay aspect ratio                     : 16:9\r\nOriginal display aspect ratio            : 16:9\r\nFrame rate mode                          : Constant\r\nFrame rate                               : 25.000 FPS\r\nStandard                                 : PAL\r\nColor space                              : YUV\r\nChroma subsampling                       : 4:2:0\r\nBit depth                                : 8 bits\r\nScan type                                : Progressive\r\nBits/(Pixel*Frame)                       : 0.136\r\nStream size                              : 311 MiB (88%)\r\nWriting library                          : x264 core 112\r\nColor range                              : Limited\r\nColor primaries                          : BT.601 PAL\r\nTransfer characteristics                 : BT.470 System B, BT.470 System G\r\nMatrix coefficients                      : BT.601\r\n\r\nAudio\r\nID                                       : 1\r\nFormat                                   : AAC\r\nFormat/Info                              : Advanced Audio Codec\r\nFormat profile                           : LC\r\nCodec ID                                 : 40\r\nDuration                                 : 44 min 6 s\r\nBit rate mode                            : Variable\r\nBit rate                                 : 128 kb/s\r\nMaximum bit rate                         : 576 kb/s\r\nChannel(s)                               : 2 channels\r\nChannel positions                        : Front: L R\r\nSampling rate                            : 48.0 kHz\r\nFrame rate                               : 46.875 FPS (1024 spf)\r\nCompression mode                         : Lossy\r\nStream size                              : 40.4 MiB (11%)","torrent":{"xt":"urn:btih:37d0545a1422f9f3c86ab60334da3d05f9df76af","amp;dn":"Offspring+-+S06E10+-+To+the+Best+Of+My+Ability","amp;tr":["udp%3A%2F%2Ftracker.leechers-paradise.org%3A6969","udp%3A%2F%2Fzer0day.ch%3A1337","udp%3A%2F%2Fopen.demonii.com%3A1337","udp%3A%2F%2Ftracker.coppersurfer.tk%3A6969","udp%3A%2F%2Fexodus.desync.com%3A6969"],"infoHash":"37d0545a1422f9f3c86ab60334da3d05f9df76af","infoHashBuffer":{"type":"Buffer","data":[55,208,84,90,20,34,249,243,200,106,182,3,52,218,61,5,249,223,118,175]},"announce":[],"urlList":[]}}